# Blender 3.4.1
# www.blender.org
mtllib rocks.mtl
o RockGrassy
v 0.088305 -0.635388 2.025461
v 1.009201 -0.415846 2.401425
v -0.255656 -0.346109 2.793263
v -0.880371 -0.364331 2.009328
v -0.198251 -0.273892 1.076395
v 1.109111 -0.424720 1.444834
v 0.349659 0.412046 2.531614
v -0.668725 0.432908 2.497732
v -0.645011 0.430498 1.469452
v 0.654139 0.400510 1.121040
v 1.616515 0.410112 1.911057
v 0.130619 0.884999 1.632751
vn 0.0660 -0.9236 0.3776
vn 0.2194 -0.9751 0.0320
vn -0.2656 -0.9354 0.2334
vn -0.2547 -0.9268 -0.2761
vn -0.0082 -0.9353 -0.3538
vn 0.8274 -0.5540 0.0916
vn 0.2992 0.0890 0.9500
vn -0.7682 -0.1736 0.6162
vn -0.7877 -0.1691 -0.5924
vn 0.2379 -0.2383 -0.9416
vn 0.4308 0.2050 0.8789
vn -0.0242 0.3433 0.9389
vn -0.9627 0.2696 -0.0228
vn -0.2344 0.3561 -0.9046
vn 0.6335 0.0463 -0.7723
vn 0.2052 0.8859 0.4161
vn 0.0027 0.8852 0.4651
vn -0.5034 0.8640 -0.0136
vn -0.1929 0.6064 -0.7714
vn 0.3470 0.8320 -0.4328
vt 0.000078 0.459808
vt 0.307638 0.726116
vt 0.325616 0.298741
vt 0.390774 0.999938
vt 0.024666 0.000062
vt 0.222211 0.770830
vt 0.072446 0.948360
vt 0.000062 0.465086
vt 0.062139 0.999938
vt 0.000063 0.582583
vt 0.814553 0.999910
vt 0.151313 0.002139
vt 0.371640 0.347719
vt 0.602060 0.564639
vt 0.154180 0.333800
vt 0.550115 0.999922
vt 0.384050 0.239693
vt 0.000090 0.777413
vt 0.384050 0.717436
vt 0.432852 0.957109
vt 0.069886 0.239717
vt 0.814553 0.546778
vt 0.602060 0.000078
vt 0.390774 0.000063
vt 0.698659 0.000090
vt 0.473382 0.598615
s 0
usemtl rock_grassy
f 1/1/1 2/3/1 3/6/1
f 2/3/2 1/1/2 6/12/2
f 1/2/3 3/4/3 4/7/3
f 1/2/4 4/7/4 5/10/4
f 1/2/5 5/10/5 6/13/5
f 2/3/6 6/12/6 11/23/6
f 3/6/7 2/3/7 7/14/7
f 4/8/8 3/5/8 8/17/8
f 5/9/9 4/8/9 9/19/9
f 6/13/10 5/10/10 10/21/10
f 2/3/11 11/23/11 7/14/11
f 3/6/12 7/14/12 8/16/12
f 4/8/13 8/17/13 9/19/13
f 5/11/14 9/20/14 10/22/14
f 6/13/15 10/21/15 11/24/15
f 7/15/16 11/25/16 12/26/16
f 8/18/17 7/15/17 12/26/17
f 9/20/18 8/18/18 12/26/18
f 10/22/19 9/20/19 12/26/19
f 11/25/20 10/22/20 12/26/20
